HIERARCHY
ROOT Pelvis
{
	OFFSET 0.000000 0.000000 0.000000
	CHANNELS 6 Xposition Yposition Zposition Xrotation Yrotation Zrotation
	JOINT LeftUpLeg_virtual
	{
		OFFSET 0.000000 0.000000 0.000000
		CHANNELS 3 Xrotation Yrotation Zrotation
		JOINT LeftUpLeg
		{
			OFFSET 18.735201 -5.666702 -4.541200
			CHANNELS 3 Xrotation Yrotation Zrotation
			JOINT LeftLeg
			{
				OFFSET -0.021200 -31.938179 0.493100
				CHANNELS 3 Xrotation Yrotation Zrotation
				JOINT LeftFoot
				{
					OFFSET 0.021200 -31.938179 -4.336299
					CHANNELS 3 Xrotation Yrotation Zrotation
					JOINT LeftToeBase
					{
						OFFSET 0.943001 -26.722000 15.023500
						CHANNELS 3 Xrotation Yrotation Zrotation
						End Site
						{
							OFFSET 0 0 0
						}
					}
				}
			}
		}
	}
	JOINT RightUpLeg_virtual
	{
		OFFSET 0.000000 0.000000 0.000000
		CHANNELS 3 Xrotation Yrotation Zrotation
		JOINT RightUpLeg
		{
			OFFSET -18.735201 -5.666702 -4.541200
			CHANNELS 3 Xrotation Yrotation Zrotation
			JOINT RightLeg
			{
				OFFSET 0.018946 -31.938133 0.493100
				CHANNELS 3 Xrotation Yrotation Zrotation
				JOINT RightFoot
				{
					OFFSET -0.018946 -31.938126 -4.336299
					CHANNELS 3 Xrotation Yrotation Zrotation
					JOINT RightToeBase
					{
						OFFSET -0.943001 -26.722004 15.023500
						CHANNELS 3 Xrotation Yrotation Zrotation
						End Site
						{
							OFFSET 0 0 0
						}
					}
				}
			}
		}
	}
	JOINT Hips_virtual
	{
		OFFSET 0.000000 0.000000 0.000000
		CHANNELS 3 Xrotation Yrotation Zrotation
		JOINT Hips
		{
			OFFSET -0.000000 -0.000000 -0.000000
			CHANNELS 3 Xrotation Yrotation Zrotation
			JOINT Spine
			{
				OFFSET 0.000000 10.199997 -0.299500
				CHANNELS 3 Xrotation Yrotation Zrotation
				JOINT Spine1
				{
					OFFSET 0.000000 11.900002 -1.516600
					CHANNELS 3 Xrotation Yrotation Zrotation
					JOINT Spine2
					{
						OFFSET 0.000000 13.600006 -2.842500
						CHANNELS 3 Xrotation Yrotation Zrotation
						JOINT Neck_virtual
						{
							OFFSET 0.000000 0.000000 0.000000
							CHANNELS 3 Xrotation Yrotation Zrotation
							JOINT Neck
							{
								OFFSET 0.000000 9.624100 -2.890100
								CHANNELS 3 Xrotation Yrotation Zrotation
								JOINT Head
								{
									OFFSET 0.000000 14.068802 -1.351900
									CHANNELS 3 Xrotation Yrotation Zrotation
									End Site
									{
										OFFSET 0 0 0
									}
								}
							}
						}
						JOINT LeftShoulder_virtual
						{
							OFFSET 0.000000 0.000000 0.000000
							CHANNELS 3 Xrotation Yrotation Zrotation
							JOINT LeftShoulder
							{
								OFFSET 15.263000 10.923401 -0.547700
								CHANNELS 3 Xrotation Yrotation Zrotation
								JOINT LeftArm
								{
									OFFSET 25.438599 -2.830597 -13.032500
									CHANNELS 3 Xrotation Yrotation Zrotation
									JOINT LeftForeArm
									{
										OFFSET 29.960503 0.000000 0.000000
										CHANNELS 3 Xrotation Yrotation Zrotation
										JOINT LeftHand
										{
											OFFSET 27.849251 0.000000 0.000000
											CHANNELS 3 Xrotation Yrotation Zrotation
											End Site
											{
												OFFSET 0 0 0
											}
										}
									}
								}
							}
						}
						JOINT RightShoulder_virtual
						{
							OFFSET 0.000000 0.000000 0.000000
							CHANNELS 3 Xrotation Yrotation Zrotation
							JOINT RightShoulder
							{
								OFFSET -15.263000 10.923401 -0.547700
								CHANNELS 3 Xrotation Yrotation Zrotation
								JOINT RightArm
								{
									OFFSET -25.438599 -2.830597 -13.032500
									CHANNELS 3 Xrotation Yrotation Zrotation
									JOINT RightForeArm
									{
										OFFSET -29.960503 0.000000 0.000000
										CHANNELS 3 Xrotation Yrotation Zrotation
										JOINT RightHand
										{
											OFFSET -27.849251 0.000000 0.000000
											CHANNELS 3 Xrotation Yrotation Zrotation
											End Site
											{
												OFFSET 0 0 0
											}
										}
									}
								}
							}
						}
					}
				}
			}
		}
	}
}
MOTION
Frames: 11
Frame Time: 0.03333333
-2.840122 79.177208 1.743465 0.000000 0.000000 0.000000 -4.105698 -47.480910 0.867278 -37.298167 4.112761 19.310021 62.097587 -7.591958 5.544066 -24.348202 -7.191621 -18.099521 0.000000 0.000000 0.000000 -3.863099 -46.211216 0.653373 -20.387857 -13.409431 -30.951409 57.875690 -7.272395 -7.334090 -34.594649 -8.283383 23.301318 0.000000 0.000000 0.000000 -3.787415 -46.635080 1.260855 -0.907731 0.465145 -0.610405 9.692507 6.818752 -1.693507 2.373603 1.341251 -1.447741 0.000000 0.000000 0.000000 0.908893 0.805573 -1.454906 2.529128 3.408629 -0.110270 0.000000 0.000000 0.000000 1.809358 1.012511 -1.291011 1.510342 4.315466 -9.898809 -56.671978 -2.604368 -53.882754 171.484835 -78.145506 169.528697 0.000000 0.000000 0.000000 1.300179 0.845429 -1.707599 1.920171 12.229982 -6.020721 -47.251119 25.343622 86.511046 -177.100521 72.877067 176.764941 0.000000 0.000000 0.000000 
-2.915803 79.464203 2.607151 0.000000 0.000000 0.000000 -4.021115 -47.097556 0.961621 -37.549037 4.163354 19.227541 61.981522 -7.512823 5.238257 -24.133818 -7.190015 -17.804859 0.000000 0.000000 0.000000 -3.784546 -45.521257 0.666155 -22.253576 -12.689536 -31.738793 60.731426 -6.862094 -7.211008 -31.107806 -6.800160 24.693639 0.000000 0.000000 0.000000 -3.764623 -46.191019 1.282116 -0.956218 0.132703 -0.496427 9.944148 6.973866 -1.728140 2.423921 1.563988 -1.568001 0.000000 0.000000 0.000000 0.934260 0.981271 -1.570161 2.524521 3.373055 -0.124837 0.000000 0.000000 0.000000 1.775174 1.196418 -1.404412 1.399018 4.219054 -9.439564 -57.228512 -2.359303 -53.188927 172.925145 -77.727963 171.264808 0.000000 0.000000 0.000000 1.352249 1.030305 -1.836803 1.900860 12.743091 -5.970994 -47.348422 25.853755 85.776780 -176.209687 73.332797 175.979387 0.000000 0.000000 0.000000 
-3.119905 79.950394 3.325932 0.000000 0.000000 0.000000 -3.382234 -46.413478 1.491099 -37.424959 4.411063 18.654853 60.890016 -7.843718 4.988909 -23.892700 -7.419012 -17.385900 0.000000 0.000000 0.000000 -3.425843 -44.631424 1.004167 -25.839806 -10.877123 -32.950711 64.729027 -6.251686 -6.963683 -25.421944 -4.376071 25.349960 0.000000 0.000000 0.000000 -3.364203 -45.457774 1.664802 -0.797494 -0.360386 -0.624308 10.303508 7.223371 -1.781371 2.453011 1.880627 -1.681622 0.000000 0.000000 0.000000 1.004172 1.300516 -1.682307 2.522902 3.337969 -0.192398 0.000000 0.000000 0.000000 1.745383 1.503411 -1.550703 1.391018 3.414786 -8.951200 -58.755644 -1.572734 -51.833909 174.165794 -77.183849 172.861897 0.000000 0.000000 0.000000 1.435332 1.341504 -1.940561 1.984041 13.579904 -6.157425 -48.299611 26.250519 85.061141 -174.853854 74.372892 174.711704 0.000000 0.000000 0.000000 
-3.530488 80.656296 3.735851 0.000000 0.000000 0.000000 -2.374645 -45.494685 2.306026 -36.901869 4.794676 17.899805 58.814233 -8.638187 4.841770 -23.174157 -7.998017 -17.267625 0.000000 0.000000 0.000000 -2.855740 -43.682608 1.597246 -30.037919 -9.031145 -33.985973 68.469566 -5.845606 -6.534040 -19.559403 -2.088161 24.787132 0.000000 0.000000 0.000000 -2.649452 -44.487925 2.249174 -0.664139 -0.663705 -0.747239 10.626100 7.483517 -1.809878 2.445309 2.195711 -1.740389 0.000000 0.000000 0.000000 1.086363 1.641785 -1.742802 2.531468 3.310481 -0.292549 0.000000 0.000000 0.000000 1.713020 1.813506 -1.663927 1.477963 1.954563 -8.497040 -61.273456 -0.517732 -49.721540 175.193314 -76.463428 174.262428 0.000000 0.000000 0.000000 1.507812 1.673975 -1.963676 2.145320 14.572176 -6.480440 -50.677084 26.259584 84.841441 -173.094656 75.955296 172.996206 0.000000 0.000000 0.000000 
-4.085393 81.580376 3.991169 0.000000 0.000000 0.000000 -1.183419 -44.290276 3.183514 -36.297090 5.376405 17.495823 55.974951 -9.657760 4.639892 -21.313875 -8.858990 -17.424087 0.000000 0.000000 0.000000 -1.990548 -42.673072 2.321787 -33.884094 -7.821652 -34.581869 71.222679 -5.753524 -5.977516 -14.805349 -0.797680 23.147182 0.000000 0.000000 0.000000 -1.698226 -43.301080 2.913255 -0.420343 -0.619535 -0.795247 10.813051 7.667919 -1.749976 2.398134 2.412396 -1.711773 0.000000 0.000000 0.000000 1.128606 1.885733 -1.707164 2.546447 3.287300 -0.394728 0.000000 0.000000 0.000000 1.691358 2.005754 -1.674013 1.640913 0.021866 -8.120701 -64.690532 0.276759 -46.861542 175.965289 -75.560245 175.350586 0.000000 0.000000 0.000000 1.540857 1.922918 -1.878358 2.338035 15.512287 -6.862315 -54.749686 25.635828 85.278156 -171.143422 77.967907 171.045736 0.000000 0.000000 0.000000 
-4.793265 82.595726 4.196289 0.000000 0.000000 0.000000 0.007258 -42.886505 3.881938 -36.133429 5.977305 17.771748 53.133052 -10.590348 4.372542 -18.332935 -9.834605 -17.579753 0.000000 0.000000 0.000000 -1.022280 -41.512551 2.932090 -36.666945 -7.293068 -34.796805 72.622540 -5.952255 -5.481488 -11.107237 -0.770479 20.803108 0.000000 0.000000 0.000000 -0.648175 -41.830595 3.491905 -0.307378 -0.373412 -0.850063 10.811488 7.703743 -1.587838 2.310652 2.450921 -1.586583 0.000000 0.000000 0.000000 1.114198 1.958609 -1.582297 2.568410 3.263923 -0.474276 0.000000 0.000000 0.000000 1.693232 2.033480 -1.554944 1.840654 -2.132331 -7.971218 -68.350092 0.502427 -43.679080 176.485162 -74.650921 176.077919 0.000000 0.000000 0.000000 1.545017 2.017052 -1.704975 2.507617 16.140514 -7.215143 -60.058454 24.343119 86.195054 -169.127396 80.201966 169.022525 0.000000 0.000000 0.000000 
-5.713714 83.430511 4.314342 0.000000 0.000000 0.000000 0.902361 -41.370978 4.183044 -36.487618 6.211931 18.536104 51.085816 -11.262823 4.306966 -14.969061 -10.743437 -17.544321 0.000000 0.000000 0.000000 -0.012728 -40.195810 3.335163 -37.949279 -7.236547 -34.550392 72.287526 -6.399817 -5.278015 -8.847221 -2.119550 18.173506 0.000000 0.000000 0.000000 0.287919 -40.101243 3.843130 -0.243957 -0.129414 -0.873678 10.638101 7.612026 -1.360937 2.245235 2.332377 -1.405912 0.000000 0.000000 0.000000 1.083933 1.861072 -1.401497 2.599712 3.238462 -0.523478 0.000000 0.000000 0.000000 1.723093 1.906096 -1.332408 2.047865 -4.175471 -8.137788 -71.511712 0.101118 -40.782411 176.812164 -73.930985 176.514559 0.000000 0.000000 0.000000 1.503662 1.934036 -1.495841 2.596463 16.276913 -7.535349 -65.560889 22.534679 87.247696 -167.248943 82.444720 167.170014 0.000000 0.000000 0.000000 
-6.769953 83.781921 4.457870 0.000000 0.000000 0.000000 1.347789 -39.819897 4.078830 -36.915076 5.838668 19.489523 50.133278 -11.742115 4.676989 -12.243754 -11.533049 -17.691223 0.000000 0.000000 0.000000 0.889688 -38.773864 3.476547 -37.455251 -7.408582 -33.877127 70.363550 -6.999601 -5.255702 -9.296638 -4.704269 15.776682 0.000000 0.000000 0.000000 0.808785 -38.372720 3.894701 -0.195370 -0.027575 -0.960353 10.368670 7.436397 -1.150275 2.246898 2.116651 -1.238826 0.000000 0.000000 0.000000 1.054687 1.659926 -1.232974 2.644035 3.206801 -0.533957 0.000000 0.000000 0.000000 1.796410 1.692553 -1.103826 2.226990 -5.811752 -8.774348 -73.321466 -0.743246 -38.905785 176.872980 -73.786260 176.547522 0.000000 0.000000 0.000000 1.455616 1.752105 -1.335064 2.597768 15.919849 -7.857634 -70.049744 20.609430 88.116714 -165.566654 84.630162 165.552598 0.000000 0.000000 0.000000 
-7.930068 83.531563 4.528877 0.000000 0.000000 0.000000 1.218306 -38.498358 3.726821 -36.901743 4.996915 20.428268 50.202666 -12.148692 5.530848 -11.404510 -12.128672 -18.519180 0.000000 0.000000 0.000000 1.171415 -37.554661 3.320088 -35.549437 -7.543360 -33.167986 67.375773 -7.386744 -5.280017 -11.878371 -7.578798 14.779124 0.000000 0.000000 0.000000 0.847722 -37.045088 3.751946 -0.231149 0.053956 -1.186434 10.156083 7.252949 -1.061006 2.300118 1.888039 -1.156437 0.000000 0.000000 0.000000 1.056603 1.432487 -1.158435 2.694085 3.172920 -0.515914 0.000000 0.000000 0.000000 1.907074 1.468111 -0.984563 2.357187 -6.806731 -9.876121 -73.527717 -1.705301 -38.286178 176.644142 -74.317267 176.152204 0.000000 0.000000 0.000000 1.421336 1.538036 -1.287242 2.543834 15.207686 -8.204461 -72.646131 19.001303 88.750576 -163.006194 86.765478 163.130476 0.000000 0.000000 0.000000 
-9.200801 82.681160 4.358356 0.000000 0.000000 0.000000 0.467804 -37.713829 3.309146 -36.262530 4.129626 21.340313 51.117856 -12.477350 6.726177 -12.917071 -12.304814 -20.208021 0.000000 0.000000 0.000000 0.666111 -36.776494 2.994186 -33.158530 -7.233098 -32.946702 64.131768 -7.138943 -5.397925 -14.929489 -9.786129 16.009767 0.000000 0.000000 0.000000 0.286547 -36.315320 3.498124 -0.285548 0.269017 -1.305224 10.119266 7.161023 -1.148049 2.381221 1.736634 -1.214754 0.000000 0.000000 0.000000 1.108391 1.245451 -1.233542 2.734530 3.147625 -0.497451 0.000000 0.000000 0.000000 2.060938 1.290808 -1.029709 2.441135 -7.092813 -11.181718 -72.654983 -2.586233 -38.648738 176.085692 -75.252743 175.347963 0.000000 0.000000 0.000000 1.438627 1.348326 -1.383544 2.460707 14.404333 -8.623646 -73.074596 18.129750 89.047867 -151.922354 88.809582 152.249643 0.000000 0.000000 0.000000 
-10.566308 81.435837 3.970013 0.000000 0.000000 0.000000 -0.715969 -37.565562 2.984539 -35.035708 3.718558 22.333368 52.477416 -12.651543 7.957724 -16.088910 -11.873972 -22.656600 0.000000 0.000000 0.000000 -0.560126 -36.534375 2.626301 -31.147490 -6.283781 -33.741917 61.725608 -6.270500 -5.557038 -17.290019 -11.005479 19.008936 0.000000 0.000000 0.000000 -0.916556 -36.344809 3.200674 -0.343045 0.327071 -1.454676 10.305710 7.151965 -1.398841 2.437601 1.644484 -1.427485 0.000000 0.000000 0.000000 1.202460 1.114124 -1.473779 2.758796 3.144698 -0.498950 0.000000 0.000000 0.000000 2.258987 1.174200 -1.226837 2.494191 -6.679130 -12.372040 -71.464351 -3.353835 -39.503181 175.352348 -76.102063 174.354089 0.000000 0.000000 0.000000 1.541375 1.216877 -1.618406 2.391110 13.755955 -9.160472 -71.642961 18.221831 88.869674 -18.486484 89.144535 19.046558 0.000000 0.000000 0.000000 
